<svg xmlns="http://www.w3.org/2000/svg"  viewBox="0 0 64 64" width="128px" height="128px"><radialGradient id="gM7XLdW85bz6P04dTLGbXa" cx="32" cy="30" r="30.536" gradientTransform="translate(0 2)" gradientUnits="userSpaceOnUse"><stop offset="0" stop-color="#afeeff"/><stop offset=".193" stop-color="#bbf1ff"/><stop offset=".703" stop-color="#d7f8ff"/><stop offset="1" stop-color="#e1faff"/></radialGradient><path fill="url(#gM7XLdW85bz6P04dTLGbXa)" d="M63.92,31.24C63.58,32.88,62.06,34,60.39,34H47v9h12.5c2.17,0,3.89,2,3.42,4.24	C62.58,48.88,61.06,50,59.39,50H54c-1.1,0-2,0.9-2,2s0.9,2,2,2h3.5c1.92,0,3.5,1.58,3.5,3.5S59.42,61,57.5,61h-52	c-2.17,0-3.89-2-3.42-4.24C2.42,55.12,3.94,54,5.61,54H10c1.1,0,2-0.9,2-2s-0.9-2-2-2H4.61c-1.67,0-3.19-1.12-3.53-2.76	C0.61,45,2.33,43,4.5,43H15c1.11,0,2-0.9,2-2s-0.89-2-2-2H3.5c-2.17,0-3.89-2-3.42-4.24C0.42,33.12,1.94,32,3.61,32H18v-9H4.5	c-2.17,0-3.89-2-3.42-4.24C1.42,17.12,2.94,16,4.61,16h8.89c0.69,0,1.32-0.28,1.77-0.73C15.72,14.82,16,14.19,16,13.5	c0-1.38-1.12-2.5-2.5-2.5H7c-2.21,0-4-1.79-4-4c0-0.09,0-0.18,0.01-0.27c0.07-0.99,0.5-1.89,1.16-2.56C4.9,3.45,5.9,3,7,3h49	c2.12,0,3.86,1.65,3.99,3.74C60,6.83,60,6.91,60,7c0,1.1-0.45,2.1-1.17,2.83C58.1,10.55,57.1,11,56,11h-6.5	c-0.69,0-1.32,0.28-1.77,0.73C47.28,12.18,47,12.81,47,13.5c0,1.38,1.12,2.5,2.5,2.5h10.88c1.68,0,3.2,1.12,3.54,2.76	C64.39,21,62.67,23,60.5,23H56c-1.1,0-2,0.9-2,2s0.9,2,2,2h4.5C62.67,27,64.39,29,63.92,31.24z"/><linearGradient id="gM7XLdW85bz6P04dTLGbXb" x1="32" x2="32" y1="1189.825" y2="1142.216" gradientTransform="translate(0 -1134)" gradientUnits="userSpaceOnUse"><stop offset="0" stop-color="#6f7a85"/><stop offset="1" stop-color="#788490"/></linearGradient><path fill="url(#gM7XLdW85bz6P04dTLGbXb)" d="M18,8h28c5.523,0,10,4.477,10,10v28c0,5.523-4.477,10-10,10H18c-5.523,0-10-4.477-10-10V18	C8,12.477,12.477,8,18,8z"/><path fill="#5dd08d" d="M44.667,17.838c-4.08-3.652-9.353-5.328-14.841-4.717c-8.941,0.994-15.987,8.231-16.754,17.209	c-0.823,9.623,5.671,18.334,15.105,20.263c0.104,0.021,0.208,0.032,0.312,0.032c0.349,0,0.688-0.119,0.963-0.343	C29.8,49.998,30,49.576,30,49.125v-2.278c0-0.713,0.306-1.395,0.839-1.869l6.435-5.719c1.098-0.976,1.651-2.43,1.479-3.889	l-1.756-14.929C36.967,20.19,36.753,20,36.5,20H36c-0.827,0-1.5,0.673-1.5,1.5v10c0,0.276-0.224,0.5-0.5,0.5s-0.5-0.224-0.5-0.5v-10	c0-0.827-0.673-1.5-1.5-1.5s-1.5,0.673-1.5,1.5v10c0,0.276-0.224,0.5-0.5,0.5s-0.5-0.224-0.5-0.5v-10c0-0.827-0.673-1.5-1.5-1.5	h-0.5c-0.253,0-0.467,0.19-0.497,0.441L25.247,35.37c-0.172,1.459,0.381,2.913,1.479,3.889l4.521,4.019l-1.073,0.954	C29.428,44.895,29,45.848,29,46.847v2.278c0,0.204-0.114,0.327-0.181,0.382c-0.123,0.1-0.285,0.139-0.442,0.106	c-8.937-1.828-15.088-10.082-14.309-19.199c0.727-8.504,7.4-15.359,15.868-16.3c5.203-0.579,10.199,1.008,14.064,4.468	c3.813,3.413,6,8.303,6,13.417c0,8.502-6.045,15.909-14.375,17.614c-0.159,0.031-0.322-0.006-0.445-0.106	C35.113,49.452,35,49.33,35,49.126V45.5c0-0.276-0.224-0.5-0.5-0.5S34,45.224,34,45.5v3.626c0,0.45,0.2,0.872,0.548,1.156	c0.357,0.291,0.824,0.404,1.277,0.311C44.618,48.794,51,40.975,51,32C51,26.603,48.692,21.44,44.667,17.838z M27.391,38.512	c-0.854-0.759-1.284-1.89-1.15-3.025L27.945,21H28c0.276,0,0.5,0.224,0.5,0.5v10c0,0.827,0.673,1.5,1.5,1.5s1.5-0.673,1.5-1.5v-10	c0-0.276,0.224-0.5,0.5-0.5s0.5,0.224,0.5,0.5v10c0,0.827,0.673,1.5,1.5,1.5s1.5-0.673,1.5-1.5v-10c0-0.276,0.224-0.5,0.5-0.5h0.055	l1.705,14.487c0.134,1.135-0.296,2.266-1.15,3.025L32,42.609L27.391,38.512z"/></svg>